<svg xmlns="http://www.w3.org/2000/svg"  viewBox="0 0 50 50" width="250px" height="250px"><path d="M46,6v38c0,1.09-0.91,2-2,2H6c-1.09,0-2-0.91-2-2V33.81l7.89,4.18c0.3,0.16,0.67,0.16,0.96-0.01L30,28.21 c0.6-0.34,0.68-1.19,0.14-1.63l-1.35-1.13c-0.32-0.27-0.78-0.3-1.15-0.09l-14.79,8.37c-0.3,0.17-0.66,0.18-0.96,0.02L4,29.62v-2.75 l7.76,4.12c0.31,0.16,0.67,0.16,0.97-0.01l17.14-9.77c0.61-0.34,0.68-1.19,0.15-1.63l-1.35-1.13c-0.33-0.27-0.79-0.3-1.15-0.09 l-14.8,8.37c-0.29,0.17-0.65,0.18-0.95,0.02L4,22.69v-2.75l7.64,4.05c0.3,0.16,0.67,0.16,0.96-0.01l17.15-9.77 c0.6-0.34,0.68-1.19,0.14-1.63l-1.35-1.13c-0.32-0.27-0.78-0.3-1.15-0.09L12.6,19.73c-0.3,0.17-0.66,0.18-0.96,0.02l-7.64-4V6 c0-1.09,0.91-2,2-2h38C45.09,4,46,4.91,46,6z"/></svg>